<svg xmlns="http://www.w3.org/2000/svg" viewBox="0 0 280 120" fill="none">
  <!-- PEP Formations - White Version -->
  
  <!-- P letter -->
  <path d="M10 100 L10 20 L40 20 Q55 20 55 35 L55 45 Q55 60 40 60 L25 60 L25 100 L10 100 Z M25 35 L25 48 L38 48 Q43 48 43 41 Q43 35 38 35 L25 35 Z" fill="#FFFFFF"/>
  
  <!-- Pulse (replacing E) -->
  <path d="M55 65 L70 65 L80 30 L95 85 L105 55 L120 55" stroke="#EC520B" stroke-width="6" stroke-linecap="round" stroke-linejoin="round" fill="none"/>
  
  <!-- Second P -->
  <path d="M125 100 L125 20 L155 20 Q170 20 170 35 L170 45 Q170 60 155 60 L140 60 L140 100 L125 100 Z M140 35 L140 48 L153 48 Q158 48 158 41 Q158 35 153 35 L140 35 Z" fill="#FFFFFF"/>
  
  <!-- FORMATIONS text -->
  <text x="10" y="115" font-family="system-ui, sans-serif" font-size="20" font-weight="700" letter-spacing="3" fill="#FFFFFF">FORMATIONS</text>
</svg>
